<svg transform="scale(2)" version="1.1" id="Layer_1" xmlns="http://www.w3.org/2000/svg" xmlns:xlink="http://www.w3.org/1999/xlink" x="0px" y="0px" viewBox="0 0 500 500" xml:space="preserve" class="show_show__wrapper__graphic__5Waiy "><title>React</title><style type="text/css">
	.st0{fill:#FFBE30;}
	.st1{fill:#C8AF9B;}
	.st2{opacity:0.7;fill:#FFFFFD;enable-background:new    ;}
	.st3{opacity:0.2;fill:#B3B3B3;enable-background:new    ;}
	.st4{fill:#60433D;}
	.st5{fill:#BDC361;}
	.st6{fill:#FFFFFD;}
	.st7{fill:#444F4B;}
	.st8{fill:#1A1A1A;}
	.st9{opacity:0.2;fill:#1A1A1A;enable-background:new    ;}
	.st10{opacity:0.32;fill:url(#SVGID_1_);enable-background:new    ;}
	.st11{fill:#B3B3B3;}
	.st12{fill:#FFE0CE;}
	.st13{opacity:0.3;fill:#C8AF9B;enable-background:new    ;}
	.st14{opacity:0.3;fill:#FFFFFD;enable-background:new    ;}
	.st15{opacity:0.5;fill:#FFFFFD;enable-background:new    ;}
</style><path class="st0" id="field" d="M242.9,412L18.4,279.3c-7.1-4-13.3-10.6-6.3-14.9l225.3-129.8c3.4-2.1,8.5-3.5,11.9-1.5L485,269.8
	c7.1,4.1,8.4,15.7,1.3,19.9l-213.8,122C263.4,417,252.1,417.2,242.9,412z"></path><g id="plant"><path class="st1" d="M410.3,221.6l5.5,74.4c0,0,9.5,6.7,18.9,0l4.1-74.4H410.3z"></path><path class="st2" d="M410.3,221.6l5.5,74.4c0,0,9.5,6.7,18.9,0l4.1-74.4H410.3z"></path><path class="st3" d="M427.4,274.1c-3,7.5-6.9,14.7-11.6,21.4v0.6c0,0,9.5,6.7,18.9,0l3.4-60.6C436,248.7,432.4,261.7,427.4,274.1z"></path><ellipse class="st4" cx="424.6" cy="220.6" rx="14.3" ry="8.7"></ellipse><path class="st5" d="M424.6,220.6c2.1,3.1-7.5-51.8-14.3-58.8C410.3,161.8,402.6,188.2,424.6,220.6z"></path><path class="st5" d="M424.6,220.6c0,0-6.2-58.4,14.3-77C438.9,143.5,443,189.7,424.6,220.6z"></path></g><g id="frame"><polygon class="st4" points="94.6,175.5 90.5,173.4 95.1,168.9 	"></polygon><polygon class="st4" points="150.6,86.3 146.5,84.2 144.9,89.6 	"></polygon><polygon class="st4" points="146.5,84.2 90.5,116.6 90.5,173.4 146.5,139.8 	"></polygon><polygon class="st4" points="150.6,86.3 94.6,118.6 94.6,175.5 150.6,141.8 	"></polygon><polygon class="st2" points="150.6,86.3 94.6,118.6 94.6,175.5 150.6,141.8 	"></polygon><polygon class="st6" points="144.3,96.3 100.9,121.4 100.9,165.5 144.3,139.4 	"></polygon><polygon class="st5" points="135.3,113.6 135.4,114.9 135.4,134.1 112.7,146.7 112.7,126.6 	"></polygon></g><g id="ceo"><polyline class="st4" points="291.1,247 291.1,296.3 294.7,296.3 295.5,245.8 	"></polyline><polyline class="st4" points="311.8,228.1 319.1,281.7 315.5,281.7 307.9,230.1 	"></polyline><path class="st4" d="M238.2,265.5c0,0-3.4,11.1-4.1,12.3s-11.9,8.5-11.7,10.8s4.4,3.2,7,3s17.7-6.5,18.7-8.3s0.9-17.7,0.9-17.7
		L238.2,265.5z"></path><path class="st4" d="M256.1,278.6c0,0-3.4,11.1-4.2,12.3s-11.9,8.5-11.7,10.8s4.4,3.2,7,3s17.7-6.5,18.7-8.3s0.9-17.7,0.9-17.7
		L256.1,278.6z"></path><path class="st4" d="M313.8,177.2c-1,2.7-6.4,43.8-6.4,43.8l-5.5-1.8l7.1-42.2"></path><polyline class="st1" points="311.8,228.1 311.9,221.5 306.1,223.5 307.9,230.1 	"></polyline><path class="st1" d="M298.6,217.8c0,0,14.7,5.6,13.2,11.2s-13.2,19.2-20.7,18s-16.7-7.7-16.7-7.7"></path><path class="st1" d="M298.6,211.1c0,0,14.7,5.6,13.2,11.2s-13.2,19.2-20.7,18s-16.7-7.7-16.7-7.7"></path><path class="st1" d="M299.5,157.3c0,0,19.1,5.7,20.5,13.9s1.9,23.3-18.3,17.4s-10.6-21-10.6-21"></path><path class="st2" d="M298.6,211.1c0,0,14.7,5.6,13.2,11.2s-13.2,19.2-20.7,18s-16.7-7.7-16.7-7.7"></path><path class="st2" d="M299.5,157.3c0,0,19.1,5.7,20.5,13.9s1.9,23.3-18.3,17.4s-10.6-21-10.6-21"></path><path class="st4" d="M285.5,176.9c0,0,5,21.1,1.3,32.4s-24.9,20.3-24.9,20.3L253,275c-11.8,3.7-22-2.6-22-2.6s2.5-40.1,6.2-50.2
		s32.8-30.1,32.8-30.1"></path><path class="st4" d="M286.3,203.8c0,0-29.1,20-32.9,30.1s-6.2,50.2-6.2,50.2s10.2,6.3,22,2.6l8.9-45.4c0,0,15.1-4.3,18.9-15.6
		s2.2-28.4,2.2-28.4"></path><path class="st7" d="M297.9,204.2c5-12.1,7.1-43.4,4-47.2c-6.4-7.8-19.8-6.9-19.8-6.9s-7.8-4.7-14.3,0.9c-4.9,4.1-1.4,29.4,0,45.4
		C276.3,204.2,285.7,206.4,297.9,204.2z"></path><path class="st4" d="M277,207.8c-5.2,5.2-10.8,10.3-15.7,15.8c-4.2,4.8-5.9,11-7.5,17.1c-3.8,14.2-5.5,28.8-7.2,43.4
		c-0.1,0.9,1.3,0.9,1.4,0c1.6-14,3.3-28.1,6.8-41.7c1.8-6.7,3.5-13.4,8.3-18.6s10-10,14.9-15C278.6,208.1,277.6,207.2,277,207.8z"></path><path class="st7" d="M302.2,184.4c0,0-2,18.7-5.9,23s-21.5,11.9-21.5,11.9s-4.3-7.6-8.9-9.4c0,0,17.6-9.9,18-11.7"></path><path class="st8" d="M289.3,171.3c-0.3,4-0.7,8-1.3,12c-0.5,3.4-0.8,7.3-1.9,10.6c-1.3,3.7-6.2,5.8-9.3,7.9
		c-3.3,2.1-6.6,4.2-9.9,6.2c-0.8,0.5-0.1,1.7,0.7,1.2c3.9-2.4,7.7-4.8,11.6-7.3c2.6-1.7,6.5-3.4,7.9-6.4c1.5-3.2,1.7-7.6,2.2-11.1
		c0.6-4.3,1.1-8.6,1.4-13C290.7,170.4,289.3,170.4,289.3,171.3z"></path><path class="st1" d="M296.4,373.2l64.6-36.4l-8-66.1c0,0-0.3-9.5-13.2-16.6c-11.2-6.2-116.1-65.9-143.3-81.4
		c-3.9-2.2-8.8-2.1-12.5,0.5c-14.3,9.7-48.9,33.3-51.4,37.4c-3.1,5.2-9.2,38.3-9.2,38.3l-2.8,22.2l20-13l153.2,85L296.4,373.2z"></path><path class="st9" d="M296.4,373.2l64.6-36.4l-8-66.1c0,0-0.3-9.5-13.2-16.6c-11.2-6.2-116.1-65.9-143.3-81.4
		c-3.9-2.2-8.8-2.1-12.5,0.5c-14.3,9.7-48.9,33.3-51.4,37.4c-3.1,5.2-9.2,38.3-9.2,38.3l-2.8,22.2l20-13l153.2,85L296.4,373.2z"></path><polygon class="st4" points="140.6,258.1 123.4,248.9 119,272.1 	"></polygon><path class="st1" d="M133.2,202.1l55.2-31.9c1.5-0.9,3.5-0.9,5,0l157.5,90.2c1.6,0.9,2.2,3,1.3,4.7c-0.3,0.5-0.7,0.9-1.2,1.2
		l-53.9,32.4c-1.8,1.1-4.1,1.1-6,0.1l-157.8-90.7c-1.6-0.9-2.2-3-1.2-4.7C132.2,202.9,132.7,202.4,133.2,202.1z"></path><polygon class="st6" points="280.6,257.7 309.1,240.9 286.8,228 257.5,245.2 	"></polygon><linearGradient id="SVGID_1_" gradientUnits="userSpaceOnUse" x1="201.3387" y1="267.3827" x2="229.8087" y2="301.4227" gradientTransform="matrix(1 0 0 -1 0 502)"><stop offset="0" style="stop-color: rgb(255, 224, 206); stop-opacity: 0;"></stop><stop offset="0.99" style="stop-color: rgb(26, 26, 26);"></stop></linearGradient><path class="st10" d="M207.6,206.7l-37.8,21.1c6.3,4,31.8,17.7,37.9,22l39.1-25l-6.4-15.6L207.6,206.7z"></path><polyline class="st11" points="239.8,228.9 267.4,212.8 231.5,192.2 203.3,206.7 	"></polyline><path class="st6" d="M232.7,197.2c0,0,7.2,32,7.1,31.6s-35.7-19.5-35.9-20.2s-9.4-33.2-9.4-33.2L232.7,197.2z"></path><polygon class="st12" points="228,195.6 231.6,193.4 240.8,200.9 233.4,205 	"></polygon><path class="st7" d="M228,193c0,0,10.1,3.6,9.3,12.9c0,0,15.8-6.6,19.3-10.8c3.5-4.2,11-13.3,11-13.3v-30.7
		c0,0-19.1,29.7-23.2,33.2C241,187.4,228,193,228,193z"></path><polygon class="st8" points="266.5,183.2 265.5,168.1 260.9,189.9 	"></polygon><path class="st12" d="M267,209c-0.6,0.1-1.2,0.2-1.8,0.5c-1.7,0.8-3.5,1.3-5.1,2.2c-2.7,1.6-5,3.9-6.4,6.7c-0.3,0.7-1.7,3.4-1,4.1
		s2.4,0,2.4,0s-0.1,1.5,0.4,1.9s2.1-0.9,2.1-0.9s0.7,1.9,1.7,1.4s2.8-3.1,2.8-3.1s-0.2,2,0.7,2s4.6-5.2,4.6-5.2l8-4.1
		c0,0-2.4-2.5-2.6-2.8c-1.1-1.1-2.3-1.9-3.7-2.5C268.5,209,267.7,208.9,267,209z"></path><path class="st4" d="M265.7,215.7c-1.8,1.9-3.1,4.2-4,6.8c-0.1,0.3,0.4,0.4,0.5,0.1c0.8-2.4,2.1-4.7,3.8-6.6
		C266.2,215.8,265.9,215.4,265.7,215.7z"></path><path class="st4" d="M263.3,214.1c-2.9,2.6-4.9,6-5.9,9.8c-0.1,0.3,0.4,0.5,0.5,0.1c0.9-3.7,2.9-7,5.7-9.5
		C263.9,214.2,263.6,213.9,263.3,214.1z"></path><path class="st4" d="M261,213.6c-2.8,2.4-4.9,5.6-6.1,9.1c-0.1,0.3,0.4,0.4,0.5,0.1c1.2-3.4,3.2-6.5,6-8.9
		C261.6,213.7,261.2,213.4,261,213.6z"></path><polyline class="st6" points="225.4,194.1 231.8,197.7 233.8,206.7 228.8,201.8 	"></polyline><path class="st6" d="M274.9,148.2c-0.4,0,2.8,36.9,2.9,36.1s12.3-33.7,12.3-33.7S278.7,148.1,274.9,148.2z"></path><polygon class="st8" points="277.8,184.4 290.1,167.6 288.9,162.7 293.1,160.8 294.5,151.9 290.1,150.7 	"></polygon><path class="st8" d="M274.9,148.2c-1.6,0-3.2,0.4-4.7,1.1l-0.5,6.6l3.4,2.4l-2.9,3.5l7.6,22.6L274.9,148.2z"></path><path class="st6" d="M276.6,148.3l-1.7-0.1l2.9,8.6l3.1-2.7l2.3,4.2l6.9-7.7C290.1,150.7,278.3,148.4,276.6,148.3z"></path><polygon class="st4" points="277.8,156.9 280,159.1 276.8,172.4 277.8,184.4 282,172.6 280.8,159.2 283.3,158.4 281,154.2 	"></polygon><path class="st12" d="M288.8,143.1l-1.9,8.2c-1.2,1.2-2.8,2.1-4.5,2.5c-1.7,0.4-3.4-0.6-3.8-2.3c0-0.1-0.1-0.3-0.1-0.4l-0.8-7"></path><path class="st9" d="M288.8,143.1l-1.9,8.2c-1.2,1.2-2.8,2.1-4.5,2.5c-1.7,0.4-3.4-0.6-3.8-2.3c0-0.1-0.1-0.3-0.1-0.4l-0.8-7"></path><path class="st4" d="M295.9,128.7c-1.7-4.2-5.5-5.2-9.4-4.6c-0.9-0.7-1.8-1.2-2.9-1.5c-3.2-0.9-7.4-0.1-9.5,2.6
		c-1.1-0.2-2.1-0.1-3.2,0.3c-3,1.1-3.5,4.2-2.9,7c0,0.1,0,0.2,0.1,0.3c0.1,4.9,4.7,7.1,4.7,7.1l14.9,8.3c1.7-0.8,3.2-2.1,4.2-3.6
		c0.4-0.6,0.6-1.3,0.7-2c0.1-0.1,0.2-0.2,0.3-0.3C296.2,138.6,297.8,133.3,295.9,128.7z"></path><path class="st12" d="M272.6,136c0.3,1.6,2.3,17.2,9.4,16.2s8-11.2,8-11.2s-6.2-2-6.6-4.4s-0.1-3.4-3.2-4.2S272.1,133.2,272.6,136z
		"></path><ellipse class="st11" transform="matrix(0.866 -0.5 0.5 0.866 -73.2413 135.654)" cx="216.5" cy="204.5" rx="2.4" ry="5.3"></ellipse><polygon class="st12" points="283.4,267.8 312,250.9 289.7,238 260.3,255.3 	"></polygon><polygon class="st13" points="283.4,267.8 312,250.9 289.7,238 260.3,255.3 	"></polygon><path class="st6" d="M325.2,262.6c1.4,0.2,2.8,0.6,4,1.2c1,0.5,1.9,1.2,2.5,2.1c0.5,0.7,0.6,1.6,0.3,2.4c-0.4,0.9-1.1,1.7-2,2.2
		c-1.1,0.7-2.4,1.2-3.6,1.4c-1.4,0.3-2.8,0.3-4.2,0.1c-1.4-0.2-2.7-0.6-4-1.2c-1-0.5-1.9-1.2-2.5-2.1c-0.5-0.7-0.5-1.6-0.2-2.4
		c0.4-0.9,1.1-1.7,2-2.2c1.1-0.7,2.3-1.2,3.6-1.4C322.4,262.5,323.8,262.5,325.2,262.6z M328.7,266.6c-0.5-0.6-1.1-1.1-1.7-1.4
		c-0.8-0.4-1.7-0.7-2.5-0.8c-0.9-0.1-1.7-0.1-2.6,0c-0.8,0.1-1.5,0.4-2.2,0.8c-0.5,0.3-1,0.8-1.2,1.3c-0.2,0.5-0.1,1.1,0.2,1.5
		c0.5,0.6,1.1,1,1.7,1.4c0.8,0.4,1.7,0.7,2.5,0.8c0.9,0.1,1.7,0.1,2.6,0c0.8-0.1,1.5-0.4,2.2-0.8c0.5-0.3,1-0.8,1.2-1.3
		C329.1,267.6,329,267.1,328.7,266.6"></path><polygon class="st6" points="310.7,268.6 312.6,269.6 308.2,272.4 311.4,274 315.4,271.5 317.2,272.5 313.3,275 316.6,276.7 
		321,273.9 323,274.9 316.4,279.1 304,272.8 	"></polygon><path class="st6" d="M297,277.1c1.4-0.9,3-1.4,4.6-1.6c1.7-0.2,3.4,0,5,0.5l-2.3,1.5c-0.9-0.2-1.8-0.2-2.7-0.1
		c-0.9,0.1-1.7,0.4-2.4,0.9c-0.5,0.3-0.9,0.7-1.1,1.3c-0.1,0.5,0,1,0.3,1.4c0.5,0.6,1.1,1,1.7,1.4c0.8,0.4,1.6,0.7,2.5,0.8
		c0.8,0.1,1.7,0.1,2.5,0c0.7-0.1,1.4-0.4,2.1-0.8c0.6-0.3,1-0.8,1.3-1.5c0.1-0.6,0-1.1-0.4-1.5l2.4-1.4c0.9,0.6,1.5,1.7,1.4,2.8
		c-0.3,1.2-1.1,2.2-2.3,2.8c-1.1,0.7-2.3,1.2-3.6,1.4c-1.4,0.2-2.7,0.3-4.1,0.1c-1.4-0.2-2.7-0.6-3.9-1.2c-1-0.5-1.9-1.2-2.6-2.1
		c-0.5-0.7-0.6-1.6-0.4-2.3C295.4,278.4,296.1,277.6,297,277.1z"></path></g><g id="chair"><path class="st4" d="M142.3,306.9c0,0-11.4,28.9-10.4,30.1s1.8,1.7,3.4,0s13-26.9,13-26.9L142.3,306.9z"></path><path class="st4" d="M179.9,316.7l5,28.8c0,0,0.5,3,2.6,2.3s1.6-3.6,1.6-3.6l-2-30.1"></path><path class="st1" d="M184.9,254.1v19.3L150.1,286c0,0-33.4-42.2-14.7-50.6S184.9,254.1,184.9,254.1z"></path><path class="st2" d="M184.9,254.1v19.3L150.1,286c0,0-33.4-42.2-14.7-50.6S184.9,254.1,184.9,254.1z"></path><path class="st1" d="M206.4,287.3v11.8c0,4.4-2.2,8.4-6,10.6c-5.5,3.1-15.4,6.4-32.6,5.9c-31.4-1-22.1-28.3-22.1-28.3"></path><ellipse class="st1" cx="176" cy="287.3" rx="30.4" ry="17.4"></ellipse><ellipse class="st14" cx="176" cy="287.3" rx="30.4" ry="17.4"></ellipse><path class="st1" d="M169.6,313.5c0,0,3.9-19.7-5.7-25.7s-42.1-38.2-29.1-49.8s50.1,16.1,50.1,16.1s-29.6-27.3-48-23.9
		s-4.9,66.7,0.5,75.8c4.7,7.9,16.8,11.7,25.2,13.1c13.9,2.4,53.8-3.9,44.1-26.3C206.7,292.7,206.4,314.7,169.6,313.5z"></path><path class="st15" d="M169.6,313.5c0,0,3.9-19.7-5.7-25.7s-42.1-38.2-29.1-49.8s50.1,16.1,50.1,16.1s-29.6-27.3-48-23.9
		s-4.9,66.7,0.5,75.8c4.7,7.9,16.8,11.7,25.2,13.1c13.9,2.4,53.8-3.9,44.1-26.3C206.7,292.7,206.4,314.7,169.6,313.5z"></path></g></svg>