<svg transform="scale(1)" version="1.1" id="Layer_1" xmlns="http://www.w3.org/2000/svg" xmlns:xlink="http://www.w3.org/1999/xlink" x="0px" y="0px" viewBox="0 0 500 500" xml:space="preserve" class="show_show__wrapper__graphic__5Waiy "><title>React</title><style type="text/css">
	.st0{fill:#9FBAFF;}
	.st1{fill:url(#SVGID_1_);}
	.st2{fill:url(#SVGID_00000115517214884162514130000015583381908700352929_);}
	.st3{fill:#2E3192;}
	.st4{fill:#F23DB4;}
	.st5{fill:#581B7A;}
	.st6{fill:#FFB9AD;}
	.st7{fill:#FF8C79;}
	.st8{fill:#E0FF4B;}
	.st9{fill:#FFB883;}
	.st10{fill:#EA8E50;}
</style><path class="st0" id="Base" d="M29.8,304.3l200.1,117c7.4,4.3,16.7,4.2,24-0.3l220.4-135.2c3.6-2.2,4.7-6.9,2.5-10.4
	c-0.7-1.2-1.7-2.1-3-2.8L264.3,163.4c-2.3-1.2-5-1.1-7.2,0.1L29.9,291.1c-3.7,2.1-4.9,6.7-2.9,10.4
	C27.7,302.6,28.6,303.6,29.8,304.3z"></path><g id="Shadow"><linearGradient id="SVGID_1_" gradientUnits="userSpaceOnUse" x1="206.1548" y1="1738.2729" x2="164.5448" y2="1805.6229" gradientTransform="matrix(1 0 0 1 0 -1443.47)"><stop offset="0" style="stop-color: rgb(122, 127, 241);"></stop><stop offset="1" style="stop-color: rgb(159, 186, 255);"></stop></linearGradient><path class="st1" d="M145.5,274.1l-83.9,48.8c0,0,129.2,75.4,153,89.4l72.4-42.5"></path><linearGradient id="SVGID_00000059297964108195087090000008475713460669773499_" gradientUnits="userSpaceOnUse" x1="308.8141" y1="1770.6326" x2="294.4141" y2="1793.9325" gradientTransform="matrix(1 0 0 1 0 -1443.47)"><stop offset="0" style="stop-color: rgb(122, 127, 241);"></stop><stop offset="1" style="stop-color: rgb(159, 186, 255);"></stop></linearGradient><polygon points="325.7,343.9 299.7,362.1 
		273.1,340.9 293.6,323.6 	" style="fill: url(&quot;#SVGID_00000059297964108195087090000008475713460669773499_&quot;);"></polygon></g><g id="Clip"><path class="st3" d="M124,317.2c-8.6-5-17.1-10.2-25.7-15.1c-3.5-2.2-7.5-3.6-11.7-3.9c-5.3-0.2-12.1,3.6-8.8,9.6
		c1.6,3,4.9,5,7.6,6.7c5.6,3.5,11.4,6.9,17,10.4c6.8,4.2,15.5,11.3,24.1,10.3c5-0.6,8.3-4.5,4.5-8.7c-2-2.2-5.1-3.5-7.6-5l-30-17
		c-0.7-0.4-1.7-0.2-2.1,0.6s-0.2,1.7,0.6,2.1l0,0l25.2,14.3c2.7,1.5,5.5,3,8.1,4.6c0.8,0.5,2.4,1.1,2.9,1.9c2.9,4.5-3.9,4.3-6.3,3.7
		c-4.7-1.1-9-4-13.1-6.6c-4.9-3-9.8-6-14.7-9c-3-1.8-19-9-10.5-14.4c3.8-2.5,10.7,1.6,14.2,3.7c8.3,4.8,16.5,9.7,24.8,14.5
		c0.7,0.5,1.7,0.3,2.2-0.4c0.5-0.7,0.3-1.7-0.4-2.2C124.1,317.3,124,317.3,124,317.2L124,317.2L124,317.2z"></path></g><g id="Folders_Files_and_Character"><path class="st4" d="M292.7,157.4c0,0-5.7-38,6.7-42.2s30,5.6,33.7,17.2s10.1,55.8,4.6,59.8s-43.5-2.3-46.2-12.9"></path><path class="st5" d="M323.2,183c0,0,6.6-6.1,9.7-12.5l-1.2,17.4L323.2,183z"></path><polygon class="st6" points="223.1,353.9 115.4,291.7 232.8,130.8 340.5,193 	"></polygon><polygon class="st7" points="115.4,200.4 115.4,224.4 115.4,291.7 232.8,223.1 232.8,130.8 	"></polygon><path class="st7" d="M167.4,169.5l-13.4-7.7c-0.5-0.3-38.7,23.5-38.7,23.5v18.1"></path><path class="st3" d="M254.4,152.5l-4.1-2.9l0,0c-1.4-1.1-3.3-1.2-4.9-0.3l-107.7,63.8c-2,1.2-3.2,3.3-3.2,5.6v83c0,0.8,0.4,1.6,1,2
		l0,0l0.4,0.2l0,0l4.2,2.9l1.9-3.6l-1.4-0.4l111.4-65V153l0,0L254.4,152.5z"></path><path class="st0" d="M166.2,223.4c8.4-4.1,19.6-2,25,6c2.3,3.4,3.6,7.8,7.1,9.9c2.9,1.6,6.4,1.6,9.4,0.1c9-4,12.1-14.2,15.5-22.6
		c3.9-9.4,9-21,18.3-26.1c4.7-2.2,9.6-4.1,14.5-5.7v-29.1c0-2.4-2-4.3-4.4-4.3c-0.8,0-1.5,0.2-2.2,0.6l-107.8,63.8
		c-2,1.2-3.2,3.3-3.2,5.6v53.2c2.2-10.3,5.6-20.4,10.1-29.9C152.4,236.5,157.7,227.5,166.2,223.4z"></path><path class="st3" d="M256,240.5v-55.6c-4.9,1.6-9.8,3.5-14.5,5.7c-9.3,5.2-14.5,16.7-18.3,26.1c-3.4,8.4-6.5,18.6-15.5,22.6
		c-3,1.5-6.5,1.4-9.4-0.1c-3.5-2.1-4.8-6.5-7.1-9.9c-5.4-7.9-16.6-10.1-25-6s-13.8,13.1-17.6,21.4c-4.5,9.6-7.9,19.6-10.1,29.9v29.8
		c0,1.5,1.2,2.7,2.7,2.7c0,0,0,0,0,0c0.5,0,0.9-0.1,1.4-0.4L256,240.5z"></path><ellipse class="st8" transform="matrix(0.2504 -0.9681 0.9681 0.2504 -49.4371 356.4232)" cx="205.4" cy="210.1" rx="11" ry="6.6"></ellipse><path class="st3" d="M266.4,171.1l-107.7,63.8c-2,1.2-3.2,3.3-3.2,5.6v83c0,0.8,0.4,1.5,1,2l0,0l0.4,0.2l0,0l4.2,2.9l1.9-3.6
		l-1.4-0.4l111.5-65.1v-84.6c0-2.4-2-4.3-4.4-4.3C267.8,170.5,267.1,170.7,266.4,171.1L266.4,171.1z"></path><path class="st0" d="M187.1,245.2c8.4-4.1,19.6-2,25,6c2.3,3.4,3.6,7.7,7.1,9.9c2.9,1.6,6.4,1.6,9.4,0.1c9-4.1,12.1-14.2,15.5-22.6
		c3.8-9.4,9-21,18.3-26.1c4.7-2.2,9.5-4.1,14.5-5.8v-29c0-2.4-1.9-4.3-4.3-4.3c0,0,0,0,0,0c-0.8,0-1.5,0.2-2.2,0.6l-107.7,63.8
		c-2,1.2-3.2,3.3-3.2,5.5v53.2c2.2-10.3,5.6-20.4,10-30C173.3,258.3,178.7,249.3,187.1,245.2z"></path><path class="st3" d="M276.9,262.3v-55.7c-4.9,1.6-9.8,3.5-14.5,5.7c-9.3,5.2-14.5,16.7-18.3,26.1c-3.4,8.4-6.5,18.6-15.5,22.6
		c-3,1.5-6.5,1.4-9.4-0.1c-3.5-2.1-4.8-6.5-7.1-9.9c-5.4-7.9-16.6-10.1-25-6s-13.8,13.2-17.6,21.4c-4.5,9.6-7.9,19.6-10.1,30v29.7
		c0,1.5,1.2,2.7,2.7,2.7c0.5,0,0.9-0.1,1.4-0.4L276.9,262.3z"></path><ellipse class="st8" transform="matrix(0.2504 -0.9681 0.9681 0.2504 -54.8621 393.0324)" cx="226.4" cy="231.9" rx="11" ry="6.6"></ellipse><path class="st3" d="M302.2,180.7l-107.7,63.8c-2,1.2-3.2,3.3-3.2,5.6v83c0,0.8,0.4,1.5,1,2l0,0l0.4,0.2l0,0l4.2,2.9l1.9-3.6
		l-1.4-0.4l111.5-65.1v-84.7c0-2.4-2-4.3-4.4-4.3C303.6,180.1,302.9,180.3,302.2,180.7L302.2,180.7z"></path><path class="st0" d="M222.9,254.8c8.4-4.1,19.6-2,25,6c2.3,3.4,3.6,7.8,7.1,9.9c2.9,1.6,6.4,1.6,9.4,0.1c9-4,12.1-14.2,15.5-22.6
		c3.8-9.4,9-21,18.3-26.1c4.7-2.2,9.5-4.1,14.5-5.7v-29.1c0-2.4-1.9-4.3-4.3-4.3c-0.8,0-1.6,0.2-2.2,0.6l-107.7,63.8
		c-2,1.2-3.2,3.3-3.2,5.5v53.3c2.2-10.3,5.6-20.4,10.1-30C209.1,267.9,214.5,259,222.9,254.8z"></path><path class="st3" d="M312.7,272v-55.7c-4.9,1.6-9.8,3.5-14.5,5.7c-9.3,5.2-14.5,16.7-18.3,26.1c-3.4,8.4-6.5,18.6-15.5,22.6
		c-3,1.5-6.5,1.4-9.4-0.1c-3.5-2.1-4.8-6.5-7.1-9.9c-5.4-7.9-16.6-10.1-25-6s-13.8,13.1-17.6,21.4c-4.5,9.6-7.9,19.7-10.1,30v29.7
		c0,1.5,1.2,2.7,2.7,2.7c0.5,0,0.9-0.1,1.3-0.4L312.7,272z"></path><ellipse class="st8" transform="matrix(0.2496 -0.9684 0.9684 0.2496 -36.3505 435.0643)" cx="262.5" cy="241" rx="11.1" ry="6.6"></ellipse><path class="st7" d="M225.2,261.4c-1.3,0.8-2.1,2.1-2.1,3.6v88.9l117.5-68.6V193L225.2,261.4z"></path><path class="st5" d="M313.4,125.1c1.4-0.6,2.8-1,4.1-1.4c3.5-1.1,7.1-1.9,10.7-2.8c-0.7-15.8-10.3-33.6-27.1-32.1
		c-2.4,0.1-4.8,1-6.7,2.5c-3,2.5-4.1,6.6-3.7,11.4c0.3,4.5,2.8,8.5,6.6,10.9C307.1,119.8,311.3,121.6,313.4,125.1z"></path><path class="st6" d="M293.3,99.8c0,0,0.7,22.4,8.5,23.6S315,113,315,113s4.2-10.3,0-13.1S299.4,92.2,293.3,99.8z"></path><path class="st5" d="M311.3,128.5c-1,5.6-1.4,12.7,3.7,16.4c3.3-0.5,6.6-1.5,9.7-2.8c3.4-1.7,6.5-4,9.3-6.6c0.1-1,0.1-2,0-3
		c-0.4-6.2-8.1-58.7-31.9-38.3l3.8,8c1.9,3.9,4,7.8,5.1,12.1C312.2,118.9,312.2,123.8,311.3,128.5z"></path><path class="st5" d="M293.3,92.7c-0.1-0.2,3.4-6.6,16.1-6c14.5,0.7,16.1,17.7,16.1,17.7"></path><path class="st5" d="M292.5,97.2c-0.2,0.5-0.9,7.5,0.8,9.5c0,0,9.1,4.6,14.2,4.8c0,0,0-5.9,0.7-6.5s-0.4-11-7.1-12.3"></path><path class="st6" d="M306.1,184.3c-0.7-0.4-1.6-0.1-2,0.6c0,0.1-0.1,0.2-0.1,0.3c-0.1,0.5-0.3,0.9-0.5,1.4
		c-0.4,0.2-0.6,0.5-0.8,0.8c-0.2,0.5-0.4,0.9-0.6,1.4l-0.1-0.2c0.6-1.3-1.2-2.8-2.3-1.8c-0.1-0.1-0.3-0.1-0.5-0.1
		c0.7-0.5,1.4-1,2.1-1.5c1.6-1.1,0.1-3.7-1.5-2.6c-4.1,2.9-9.2,4.8-12.4,9c-0.5,0.6-3,3.6-2.7,4.4c0.2,0.5,0.7,0.9,1.2,1
		c2.2,0.3,3.2-2.1,4.9-3.5c-1.1,2.8-3.1,5.2-3.5,8.4c0,0.8,0.6,1.5,1.4,1.5c0,0,0,0,0,0h0.2l-0.3,0.7c-0.9,1.7,1.8,3.3,2.6,1.5
		l0.5-1.1c0.3,0.8,1.3,1.2,2.1,0.9c0.1-0.1,0.3-0.2,0.4-0.2c0.5-0.4,0.9-0.8,1.3-1.2c0.6,0.5,1.4,0.5,2,0l0,0c2.8-2.7,4-6.5,5.8-9.8
		c1.9-2.4,3.5-4.9,4.8-7.7C309.2,184.6,307.1,183.2,306.1,184.3z"></path><path class="st5" d="M292.1,196.5l-3.2,6.4c-0.3,0.5,0.5,1,0.8,0.5l3.2-6.4C293.2,196.5,292.4,196,292.1,196.5z"></path><path class="st5" d="M294.6,198.9c-0.8,1.9-1.7,3.8-2.6,5.7c-0.2,0.5,0.5,1,0.8,0.5c0.9-1.9,1.8-3.8,2.6-5.7
		C295.5,198.8,294.8,198.4,294.6,198.9z"></path><path class="st5" d="M297.6,198l-2.5,5.8c-0.2,0.5,0.5,1,0.8,0.5l2.5-5.8C298.6,198,297.9,197.5,297.6,198z"></path><path class="st4" d="M312.3,148.9c0,0-10.7,23.1-20.8,30.4c0,0,8.5,20.3,18.8,15.2c3.7-1.8,21.3-17.8,25.6-30.4"></path><path class="st6" d="M275.2,163.5c0-0.7-0.5-1.3-1.2-1.4l0.7-0.4c0.6-0.4,0.8-1.2,0.5-1.9c-7.1,4.2-14.5,7.7-21.6,11.9
		c-2,1.4-3.9,3-5.7,4.7c-1.1,1,0.1,3,1.5,2.2c1.2-0.7,2.3-1.4,3.4-2.1c-1,1.2-1.9,2.4-2.8,3.6c-0.8,1-2.4,3.8-0.6,3.6
		c0.7-0.4,2.7-1.8,3.7-2.5l0,0l0.4-0.2l-0.3,0.2c0.3-0.1,1.2-0.8,1.2-0.7c0.8-0.4,1.6-0.9,2.5-1.4c0,0.1,0.1,0.2,0.2,0.2h0.2
		c-0.1,0.2,0.1,0.4,0.2,0.4h0.1c0.4,0,0.8-0.2,1.2-0.3c0.5-0.2,0.9-0.5,1.2-0.9l0.1-0.1c0.2-0.2,0.4-0.5,0.5-0.8
		c0.1-0.1,0.1-0.2,0-0.3l0.2-0.3c0.3-0.3,0.6-0.6,0.9-1l3.8-2.3l0.5-0.2l2.9-1c0.2-0.1,0.3-0.3,0.2-0.5c-0.1-0.1-0.2-0.2-0.4-0.2
		l-0.2,0.1l0,0l0.8-0.5l1.2-1c2.1-1.4,4.1-3.1,5.8-4.9C277.3,164.6,276.3,163.5,275.2,163.5z"></path><path class="st5" d="M270.1,171.6c-1.5,1.2-3.3,1.9-5.2,2.3c-0.6,0.1-1.8-0.1-2.4,0.3c-0.3,0.3-0.5,0.6-0.6,1
		c-0.3,0.8-0.7,1.6-1.2,2.4c-0.5,0.7-1.8,2.1-2.9,1.9c-1.5-0.3,0.8-4.9,1.2-5.6c0.1-0.2,0-0.4-0.2-0.5c-0.1-0.1-0.3,0-0.4,0.1
		c-0.6,1-1,2-1.4,3.1c-0.4,0.9-0.5,1.8-0.5,2.8c0.4,1.5,2.7,0.6,3.4,0c0.7-0.6,1.3-1.3,1.8-2.1c0.3-0.5,0.4-1,0.7-1.5
		c0.1-0.3,0.3-0.5,0.5-0.8c0.4-0.4,0.7-0.3,1.2-0.4c2.3-0.2,4.5-1.1,6.3-2.5C270.9,172,270.5,171.4,270.1,171.6z"></path><path class="st4" d="M292.8,124.7c0,0-7.3,18.5-12.1,22.7s-20.1,14.4-20.1,14.4s-0.1,12.1,12.4,14.2c0,0,25.7-14.6,31.4-18.7"></path><path class="st5" d="M294.7,145l-1.6,20.8c-0.1,0.8,1.2,0.8,1.2,0l1.6-20.8C296,144.2,294.8,144.2,294.7,145z"></path><path class="st5" d="M254.4,175.2c-1.5,1.3-2.9,2.7-4.1,4.2c-0.9,1.1-2.2,2.4-2,3.9c0.1,0.5,0.8,0.3,0.7-0.2
		c-0.2-1.4,1.9-3.3,2.8-4.3c1-1.1,2.1-2.1,3.2-3.1C255.2,175.4,254.7,174.9,254.4,175.2z"></path></g><g id="Cupboard"><polyline class="st9" points="360.5,279 360.5,323.9 325.7,343.9 297.4,327.1 297.4,285.5 	"></polyline><polygon class="st10" points="325.7,343.9 325.7,299.7 297.4,287.2 297.4,327.1 	"></polygon><polyline class="st10" points="297.4,283.1 297.4,287.2 300.1,288 301.9,285.2 	"></polyline><path class="st10" d="M331.9,266.1l28.6,16.9l-35.8,20.6c-1,0.6-27.3-16.6-27.3-16.6L331.9,266.1z"></path><polyline class="st10" points="360.5,283.1 360.5,279 355.3,276.5 355.9,283.6 	"></polyline><path class="st9" d="M331.9,262.1l28.6,16.9l-35.8,20.6c-1,0.6-27.3-16.6-27.3-16.6L331.9,262.1z"></path><polygon class="st10" points="355.5,291.7 355.5,301 329.4,315.8 329.4,306.7 	"></polygon><polygon class="st10" points="355.8,305.5 355.8,314.8 329.8,329.7 329.8,320.6 	"></polygon><ellipse class="st9" transform="matrix(9.497701e-02 -0.9955 0.9955 9.497701e-02 9.0824 616.5461)" cx="343.6" cy="303.3" rx="1.6" ry="1.2"></ellipse><ellipse class="st9" transform="matrix(9.497701e-02 -0.9955 0.9955 9.497701e-02 -3.2751 629.7266)" cx="344.7" cy="316.7" rx="1.6" ry="1.2"></ellipse></g><g id="Archive"><polyline class="st4" points="305.4,304.3 257.9,277.4 240.8,288.1 262.2,309.8 289.8,322.2 	"></polyline><polygon class="st5" points="286.6,315 240.8,288.1 240.8,295 240.8,298.3 240.8,344.4 286.6,369.9 286.6,369.6 287,369.9 
		305.4,358.7 305.4,313.9 305.4,304.3 	"></polygon><polygon class="st4" points="289.9,319.1 289.9,342.6 303.1,334.9 303.1,311.6 	"></polygon><polygon class="st5" points="286.6,315 286.6,369.9 240.8,344.4 240.8,288.1 	"></polygon><ellipse class="st4" transform="matrix(0.2272 -0.9739 0.9739 0.2272 -109.8258 559.343)" cx="297.5" cy="348.9" rx="4.4" ry="3"></ellipse></g><g id="Plant"><path class="st4" d="M324.4,258.3c0,0-4.7,21.4-4.3,22.6c0.9,3.1,13.9,5,17.7,0l-4.7-22.6H324.4z"></path><ellipse class="st5" cx="328.6" cy="258.5" rx="4.5" ry="2.5"></ellipse><path class="st8" d="M337.7,214.3c0,0-8.7-4.7-14,5s2.5,14.2,11.1,14.6S345,217.6,337.7,214.3z"></path><path class="st3" d="M336,214.3c-7.1,13.2-8.2,28.4-8.8,43.1c0,0.8,1.2,0.8,1.2,0c0.6-14.5,1.6-29.5,8.7-42.5
		C337.4,214.2,336.4,213.6,336,214.3z"></path><path class="st8" d="M341.1,238.9c0,0-12-0.5-10.6,7.5s11.6,6.4,13.2,2.1S341.1,238.9,341.1,238.9z"></path><path class="st3" d="M340.9,239.3c-4.7,6.2-8.3,13.1-10.7,20.4c-0.1,0.2,0.1,0.5,0.3,0.6c0.2,0.1,0.5-0.1,0.6-0.3l0,0
		c2.4-7.3,6-14.1,10.6-20.2C342,239.3,341.3,238.9,340.9,239.3z"></path><path class="st8" d="M314.9,232.7c0,0-6.5,10.2,1.2,13s11.4-6.9,8.4-10.4S314.9,232.7,314.9,232.7z"></path><path class="st3" d="M327.8,258.8c-3.4-9.3-7.6-18.3-12.5-26.9c-0.1-0.2-0.4-0.3-0.6-0.2c-0.2,0.1-0.3,0.4-0.2,0.6
		c4.9,8.5,9.1,17.4,12.4,26.7C327.1,259.6,328,259.4,327.8,258.8z"></path></g></svg>