<svg width="228" height="33" viewBox="0 0 228 33" fill="none" xmlns="http://www.w3.org/2000/svg">
<g clip-path="url(#clip0_1_2775)">
<path fill-rule="evenodd" clip-rule="evenodd" d="M44.115 6.75694C41.161 8.14094 39.495 11.6289 39.495 16.3449C39.495 20.0849 40.469 22.9779 42.261 24.7059C43.895 26.2779 45.624 26.7809 49.239 26.7809H56.532V23.0399H50.119C48.422 23.0399 47.165 22.7259 46.347 22.0969C45.09 21.1859 44.43 19.0169 44.43 15.9359C44.43 13.7669 44.807 12.1009 45.499 11.2519C46.41 10.1209 47.887 9.55494 49.961 9.55494H56.532V5.81494H49.428C47.384 5.81494 45.31 6.19194 44.115 6.75694Z" fill="#031933"/>
<path fill-rule="evenodd" clip-rule="evenodd" d="M0.862 9.55494H7.558V26.7809H12.021V9.55494H18.937V5.81494H0.862V9.55494Z" fill="#031933"/>
<path fill-rule="evenodd" clip-rule="evenodd" d="M23.73 7.51194C21.404 9.49294 20.179 12.4469 20.179 16.1569C20.179 19.6459 21.152 22.5689 22.944 24.4229C24.61 26.1829 26.748 26.7809 31.211 26.7809H37.027V23.0399H31.401C27.125 23.0399 25.553 21.8149 25.239 18.2309H37.027V14.4909H25.239C25.396 12.4149 25.522 11.9439 26.151 11.0949C27.063 9.90094 28.194 9.55494 31.211 9.55494H37.027V5.81494H29.483C26.654 5.81494 25.208 6.25494 23.73 7.51194Z" fill="#031933"/>
<path fill-rule="evenodd" clip-rule="evenodd" d="M72.202 14.3959H64.123V5.81494H59.66V26.7809H64.123V18.1369H72.202V26.7809H76.666V5.81494H72.202V14.3959Z" fill="#031933"/>
<path fill-rule="evenodd" clip-rule="evenodd" d="M107.786 18.1679H104.799L107.786 10.8439L110.771 18.1679H107.786ZM107.786 5.81494H105.208L96.532 26.7809H101.782L103.793 21.9089H111.777L113.79 26.7809H119.007L110.332 5.81494H107.786Z" fill="#031933"/>
<path fill-rule="evenodd" clip-rule="evenodd" d="M160.437 15.9989C159.211 14.7419 157.545 14.2699 154.464 14.2699H151.101C149.592 14.2699 149.089 14.2069 148.46 13.9239C147.707 13.5789 147.266 12.8239 147.266 11.8809C147.266 10.7809 147.801 9.96294 148.681 9.74494C149.341 9.58594 149.499 9.58594 151.478 9.55494H160.846V5.81494H150.473C148.021 5.81494 146.92 5.90894 145.978 6.25494C143.777 7.00894 142.332 9.33494 142.332 12.0379C142.332 13.8299 143.054 15.5279 144.312 16.6279C145.412 17.5709 147.046 18.0109 149.561 18.0109H153.427C154.433 18.0109 155.25 18.1369 155.69 18.3879C156.54 18.7969 157.042 19.6459 157.042 20.6199C157.042 21.4369 156.666 22.1289 156.005 22.5379C155.47 22.8829 154.559 23.0399 152.893 23.0399H143.336V26.7809H153.868C156.98 26.7809 158.299 26.5919 159.337 25.9319C160.971 24.9259 162.009 22.8519 162.009 20.5879C162.009 18.7969 161.38 16.9419 160.437 15.9989Z" fill="#031933"/>
<path fill-rule="evenodd" clip-rule="evenodd" d="M134.142 22.5379C133.608 22.9459 133.168 23.0399 131.879 23.0399H125.813V18.1679H131.973C133.168 18.1679 133.67 18.2619 134.206 18.6079C134.771 18.9859 135.117 19.6459 135.117 20.4629C135.117 21.2809 134.74 22.0659 134.142 22.5379ZM125.813 9.55494H131.973C133.168 9.55494 133.639 9.64994 134.173 9.99594C134.74 10.3719 135.085 11.0329 135.085 11.8499C135.085 12.6669 134.708 13.4529 134.111 13.9239C133.577 14.3329 133.137 14.4269 131.879 14.4269H125.813V9.55494ZM140.021 11.3159C140.021 9.30394 138.984 7.38594 137.412 6.53794C136.5 6.03494 135.211 5.81494 133.2 5.81494H121.349V26.7809H132.948C134.834 26.7809 136.123 26.6229 136.94 26.3089C138.889 25.5549 140.021 23.7009 140.021 21.2169C140.021 18.8909 138.984 17.2249 136.971 16.3139C138.732 15.5589 140.021 13.4849 140.021 11.3159Z" fill="#031933"/>
<path fill-rule="evenodd" clip-rule="evenodd" d="M85.3 22.1289C84.483 21.4059 84.42 21.2169 84.263 17.5709V5.81494H79.799V17.5709C79.799 19.7399 79.988 21.4679 80.302 22.4119C80.962 24.4229 82.565 25.8699 84.703 26.4349C85.772 26.7179 86.463 26.7809 89.418 26.7809H94.165V23.0399H89.89C87.061 23.0399 86.118 22.8519 85.3 22.1289Z" fill="#031933"/>
<path fill-rule="evenodd" clip-rule="evenodd" d="M174.657 -0.000976562H220.183C223.948 -0.000976562 227.028 3.07902 227.028 6.84402V25.751C227.028 29.516 223.948 32.596 220.183 32.596H174.657C170.892 32.596 167.812 29.516 167.812 25.751V6.84402C167.812 3.07902 170.892 -0.000976562 174.657 -0.000976562" fill="#EC2027"/>
<path fill-rule="evenodd" clip-rule="evenodd" d="M208.924 14.584C208.57 14.762 207.554 14.838 205.878 14.838C204.787 14.838 203.442 14.762 203.163 14.711C202.299 14.508 201.843 13.848 201.843 12.756C201.843 11.742 202.198 11.107 202.959 10.828C203.366 10.65 204.331 10.574 205.828 10.574H205.878C206.885 10.576 208.118 10.651 208.417 10.726C209.407 10.954 209.915 11.64 209.915 12.756C209.915 13.67 209.584 14.305 208.924 14.584ZM208.874 21.767C208.52 21.945 207.513 22.021 205.878 22.022H205.853C204.813 22.022 203.442 21.946 203.188 21.895C202.299 21.666 201.868 20.981 201.868 19.864C201.868 18.874 202.223 18.214 202.934 17.909C203.34 17.732 204.407 17.63 205.853 17.63H205.878C206.815 17.631 208.089 17.706 208.391 17.783C209.356 18.037 209.838 18.746 209.838 19.889C209.838 20.829 209.508 21.463 208.874 21.767ZM211.286 16.31C213.062 15.523 213.875 14.28 213.875 12.426C213.875 10.523 212.884 8.92298 211.336 8.23898C210.383 7.82298 209.43 7.73698 205.878 7.73098L205.448 7.72998C202.731 7.72998 201.589 7.83198 200.751 8.11198C198.873 8.74598 197.882 10.167 197.882 12.199C197.882 14.102 198.542 15.168 200.421 16.31C199.507 16.843 199.126 17.148 198.746 17.63C198.212 18.341 197.882 19.356 197.882 20.27C197.882 21.437 198.391 22.579 199.253 23.443C200.142 24.331 201.234 24.738 202.959 24.788C203.628 24.831 204.939 24.857 205.878 24.863L206.335 24.865C209.813 24.865 211.31 24.56 212.275 23.671C213.214 22.784 213.798 21.437 213.798 20.219C213.798 19.255 213.443 18.214 212.91 17.554C212.554 17.097 212.174 16.818 211.286 16.31Z" fill="white"/>
<path fill-rule="evenodd" clip-rule="evenodd" d="M184.95 18.594C185.331 18.011 186.067 17.808 187.819 17.808H190.205C191.855 17.808 193.149 17.579 193.987 17.122C195.281 16.413 196.042 14.813 196.042 12.756C196.042 11.234 195.484 9.81203 194.571 9.00003C193.657 8.18803 192.26 7.83203 189.951 7.83203H181.245V10.828H189.189C190.001 10.828 190.814 10.98 191.194 11.183C191.728 11.488 192.083 12.173 192.083 12.909C192.083 13.543 191.779 14.102 191.246 14.432C190.89 14.635 190.001 14.813 189.189 14.813H186.422C184.087 14.813 183.326 15.016 182.412 15.929C181.421 16.894 180.964 18.24 180.964 20.27V24.763H195.611V21.767H184.57V20.27C184.57 19.661 184.748 18.9 184.95 18.594Z" fill="white"/>
</g>
<defs>
<clipPath id="clip0_1_2775">
<rect width="228" height="33" fill="white"/>
</clipPath>
</defs>
</svg>
